Coordinates
version=1
nRows=11
nColumns=63
inDegrees=yes

Units are S.I. units (second, meters, Newtons, ...)
If the header above contains a line with 'inDegrees', this indicates whether rotational values are in degrees (yes) or radians (no).

endheader
time	pelvis_tilt	pelvis_list	pelvis_rotation	pelvis_tx	pelvis_ty	pelvis_tz	hip_flexion_r	hip_adduction_r	hip_rotation_r	knee_angle_r	knee_angle_r_beta	ankle_angle_r	subtalar_angle_r	mtp_angle_r	hip_flexion_l	hip_adduction_l	hip_rotation_l	knee_angle_l	knee_angle_l_beta	ankle_angle_l	subtalar_angle_l	mtp_angle_l	L5_S1_Flex_Ext	L5_S1_Lat_Bending	L5_S1_axial_rotation	L4_L5_Flex_Ext	L4_L5_Lat_Bending	L4_L5_axial_rotation	L3_L4_Flex_Ext	L3_L4_Lat_Bending	L3_L4_axial_rotation	L2_L3_Flex_Ext	L2_L3_Lat_Bending	L2_L3_axial_rotation	L1_L2_Flex_Ext	L1_L2_Lat_Bending	L1_L2_axial_rotation	L1_T12_Flex_Ext	L1_T12_Lat_Bending	L1_T12_axial_rotation	Abs_r3	Abs_r2	Abs_r1	Abs_t1	Abs_t2	neck_flexion	neck_bending	neck_rotation	arm_flex_r	arm_add_r	arm_rot_r	elbow_flex_r	pro_sup_r	wrist_flex_r	wrist_dev_r	arm_flex_l	arm_add_l	arm_rot_l	elbow_flex_l	pro_sup_l	wrist_flex_l	wrist_dev_l
      0.93220339	     -4.78812987	      3.19897339	     60.73523444	      0.23220454	      0.95229537	      0.51720412	      2.09203850	     -0.80076153	     13.52832953	     12.30685433	      0.21479513	     25.42621557	    -15.40235296	      0.00000000	     -5.35514523	      1.52972455	    -10.84671851	      1.32627979	      0.02314795	     27.11512306	      6.14582880	      0.00000000	      0.01491910	      0.01273733	      2.66125513	      0.02770627	      0.01694065	      2.82758358	      0.02451059	      0.03096955	      2.82758358	      0.01705104	      0.03096955	      2.32859824	      0.01385388	      0.02597397	      2.16226979	      0.00852478	      0.01973013	      1.99594135	      0.10656566	      0.14408725	     14.80110267	      0.00000000	      0.00000000	      8.38676753	     -4.24227759	      7.20815578	    172.19430859	    -48.83023928	    122.92267787	    149.72521340	      0.81219981	      6.92890116	     27.34070275	    161.09727422	    -54.67516784	    121.72164089	    142.16802502	     74.07533048	     -8.62412134	     15.90959110
      0.94915254	     -5.03714055	      3.59271261	     60.95972328	      0.23223270	      0.95211325	      0.51703735	      1.98922212	     -1.20364548	     13.07179395	     12.73114763	      0.22220044	     25.96766159	    -15.11204431	      0.00000000	     -5.58457700	      1.89253467	    -10.29488794	      1.36634713	      0.02384726	     27.07845234	      5.77702139	      0.00000000	     -0.00035726	     -0.02729421	      2.69692064	     -0.00066346	     -0.03630130	      2.86547818	     -0.00058694	     -0.06636314	      2.86547818	     -0.00040831	     -0.06636314	      2.35980556	     -0.00033175	     -0.05565835	      2.19124802	     -0.00020414	     -0.04227873	      2.02269048	     -0.00255185	     -0.30875757	     14.99946352	      0.00000000	      0.00000000	      8.48614290	     -4.19072543	      8.05591976	    174.13156582	    -48.41391931	    125.58786927	    149.73559506	      0.89306096	      8.47273734	     26.97943844	    160.20929354	    -53.65705185	    121.98406385	    140.45500388	     71.10654033	    -10.39614652	     18.78602835
      0.96610169	     -5.27870498	      3.91424425	     61.26693575	      0.23220344	      0.95184969	      0.51643164	      1.82344720	     -1.55237909	     12.99523416	     12.97120030	      0.22639015	     26.26214003	    -15.44012369	      0.00000000	     -5.76436300	      2.21873484	     -9.25933947	      1.39016093	      0.02426289	     27.12628931	      4.99400865	      0.00000000	     -0.01800670	     -0.06600802	      2.80406012	     -0.03344024	     -0.08779067	      2.97931387	     -0.02958320	     -0.16049191	      2.97931387	     -0.02057985	     -0.16049191	      2.45355260	     -0.01672102	     -0.13460356	      2.27829884	     -0.01028903	     -0.10224643	      2.10304509	     -0.12862003	     -0.74669598	     15.59534115	      0.00000000	      0.00000000	      8.83051083	     -4.25821434	      8.22074303	    177.29472667	    -48.19405796	    128.68306106	    149.74199760	      1.01589454	     10.72774190	     26.95175038	    158.78333822	    -52.29863806	    121.73442160	    138.16269418	     66.60779293	    -11.96710431	     19.79072987
      0.98305085	     -5.68287116	      4.16702655	     61.56790515	      0.23242775	      0.95159235	      0.51560757	      1.79249197	     -2.03843906	     12.63436683	     13.23656500	      0.23102164	     26.72993077	    -15.29972708	      0.00000000	     -5.77960769	      2.62576942	     -9.70058586	      1.46626166	      0.02559109	     27.44202622	      6.36941618	      0.00000000	     -0.02966534	     -0.12454715	      2.86722499	     -0.05509150	     -0.16564771	      3.04642655	     -0.04873719	     -0.30282395	      3.04642655	     -0.03390452	     -0.30282395	      2.50882187	     -0.02754724	     -0.25397655	      2.32962031	     -0.01695078	     -0.19292354	      2.15041874	     -0.21189656	     -1.40890229	     15.94664523	      0.00000000	      0.00000000	      9.21343508	     -4.10588465	      8.56818708	    180.40420402	    -48.28808204	    131.15651442	    149.75104150	      1.16353350	     12.41012909	     26.98464729	    158.44290778	    -51.05693034	    122.45281385	    136.15208434	     64.11187621	    -13.24613035	     19.05520197
      1.00000000	     -5.97448669	      4.29077046	     62.16751891	      0.23210982	      0.95143830	      0.51416675	      1.69187195	     -2.35199425	     12.44230801	     13.37275498	      0.23339860	     26.85263210	    -15.90936693	      0.00000000	     -5.72445021	      2.87029837	     -9.00713456	      1.56017438	      0.02723018	     27.77240509	      6.77003084	      0.00000000	     -0.04475545	     -0.16514268	      2.88509861	     -0.08311535	     -0.21963977	      3.06541727	     -0.07352874	     -0.40152792	      3.06541727	     -0.05115101	     -0.40152792	      2.52446128	     -0.04155991	     -0.33675896	      2.34414262	     -0.02557327	     -0.25580602	      2.16382396	     -0.31968373	     -1.86812707	     16.04605292	      0.00000000	      0.00000000	      9.63100378	     -4.25175199	      8.22643867	    184.51669187	    -48.33029717	    133.77424080	    149.74907361	      1.33068205	     14.99269557	     27.39753338	    158.29697624	    -49.89082683	    123.12893759	    134.37359318	     62.87878548	    -13.79664692	     16.61375088
      1.01694915	     -6.26293276	      4.37852313	     62.65308158	      0.23189204	      0.95147992	      0.51263146	      1.62248287	     -2.66074285	     12.27250180	     13.49445790	      0.23552272	     26.95911482	    -16.37629914	      0.00000000	     -5.68973922	      3.12728582	     -8.19774942	      1.55123616	      0.02707418	     27.94873006	      6.95412365	      0.00000000	     -0.05619153	     -0.19375254	      2.82141622	     -0.10435329	     -0.25769087	      2.99775474	     -0.09231706	     -0.47108991	      2.99775474	     -0.06422130	     -0.47108991	      2.46873919	     -0.05217945	     -0.39510017	      2.29240068	     -0.03210784	     -0.30012268	      2.11606217	     -0.40137046	     -2.19176743	     15.69187060	      0.00000000	      0.00000000	      9.62481866	     -4.29754467	      8.84526392	    187.76156973	    -48.18150334	    135.00869189	    149.75249354	      1.59745778	     16.13076308	     28.42844510	    158.89725414	    -49.26718657	    124.28289940	    133.19060130	     63.67093142	    -13.45248854	     14.37471261
      1.03389831	     -6.38875175	      4.52529990	     63.41943675	      0.23150156	      0.95190800	      0.51063080	      1.29088039	     -2.88353857	     11.57276795	     13.46965315	      0.23508980	     26.97866430	    -16.58187675	      0.00000000	     -5.79400971	      3.24871376	     -6.63496692	      1.57431406	      0.02747696	     28.03204966	      6.49701517	      0.00000000	     -0.07174305	     -0.23258994	      2.83153471	     -0.13323402	     -0.30934462	      3.00850563	     -0.11786666	     -0.56551918	      3.00850563	     -0.08199513	     -0.56551918	      2.47759287	     -0.06662060	     -0.47429741	      2.30062195	     -0.04099398	     -0.36028182	      2.12365103	     -0.51245343	     -2.63110393	     15.74814658	      0.00000000	      0.00000000	      9.39890880	     -3.74301834	      6.81712569	    192.70159197	    -48.34346200	    139.07326790	    149.75768691	      1.75075892	     20.45256651	     27.02167087	    158.08158859	    -47.74901154	    124.08543074	    131.54780865	     66.50705610	    -13.43703519	     10.12873886
      1.05084746	     -6.36846742	      4.67407575	     64.07079507	      0.23079845	      0.95258045	      0.50866387	      0.92103167	     -2.99111349	     10.91690430	     13.44513444	      0.23466186	     26.90018276	    -16.74734772	      0.00000000	     -5.95968665	      3.27100787	     -5.51005920	      1.61076736	      0.02811319	     28.19913911	      6.40664712	      0.00000000	     -0.09160628	     -0.22266695	      2.79844364	     -0.17012202	     -0.29614705	      2.97334637	     -0.15049996	     -0.54139243	      2.97334637	     -0.10469682	     -0.54139243	      2.44863818	     -0.08506559	     -0.45406245	      2.27373546	     -0.05234383	     -0.34491111	      2.09883273	     -0.65433449	     -2.51885310	     15.56410398	      0.00000000	      0.00000000	      8.96722616	     -3.61042395	      6.54741810	    196.16119119	    -47.94046135	    141.15139710	    149.75890756	      1.85411150	     22.97812524	     26.78745890	    157.40404529	    -47.35613912	    123.52050691	    130.93772078	     68.25279468	    -12.69441355	      7.94848339
      1.06779661	     -6.39531533	      4.81586650	     64.61668442	      0.23030472	      0.95324436	      0.50662572	      0.57494487	     -3.12185846	     10.47250897	     13.40017074	      0.23387710	     26.80576074	    -16.96319981	      0.00000000	     -6.11609681	      3.34206270	     -5.01981450	      1.67456519	      0.02922668	     28.35792136	      6.79090490	      0.00000000	     -0.09271906	     -0.20881424	      2.69123273	     -0.17218857	     -0.27772294	      2.85943477	     -0.15232815	     -0.50771095	      2.85943477	     -0.10596862	     -0.50771095	      2.35482864	     -0.08609892	     -0.42581400	      2.18662659	     -0.05297967	     -0.32345326	      2.01842455	     -0.66228300	     -2.36214847	     14.96782906	      0.00000000	      0.00000000	      8.44380592	     -3.60054495	      7.06457173	    197.63692078	    -47.71951508	    141.43028200	    149.75713060	      1.76250192	     23.99249463	     26.98234587	    157.80279459	    -47.58386713	    123.81841472	    131.54557883	     68.84824033	    -12.31757928	      6.88497154
      1.08474576	     -6.41741466	      4.98047435	     64.78634243	      0.23008648	      0.95379325	      0.50500409	      0.32106580	     -3.25630653	     10.31924029	     13.42936540	      0.23438664	     26.80381931	    -17.02857446	      0.00000000	     -6.29714184	      3.47041254	     -4.91421299	      1.77603860	      0.03099772	     28.49664644	      6.88462873	      0.00000000	     -0.08681049	     -0.19719924	      2.66844618	     -0.16121575	     -0.26227499	      2.83522406	     -0.14262095	     -0.47947023	      2.83522406	     -0.09921570	     -0.47947023	      2.33489041	     -0.08061222	     -0.40212869	      2.16811252	     -0.04960351	     -0.30546162	      2.00133463	     -0.62007862	     -2.23075725	     14.84109711	      0.00000000	      0.00000000	      7.92133215	     -3.51566912	      6.99454853	    198.16138567	    -47.87309618	    141.12415322	    149.76612723	      1.57512001	     24.31341027	     26.74478175	    157.92911263	    -47.98770833	    123.61074778	    132.64695562	     68.96645405	    -12.21811268	      6.60704871
      1.10169492	     -6.16747752	      5.03172294	     66.42924062	      0.22804097	      0.95485337	      0.50221752	     -0.49659054	     -3.13757972	      8.60096907	     12.73530516	      0.22227301	     26.50601024	    -17.03921031	      0.00000000	     -6.37755414	      3.12527855	     -4.24593425	      2.12077641	      0.03701453	     28.81349172	      7.98085191	      0.00000000	     -0.07766910	     -0.12564933	      2.40471809	     -0.14423928	     -0.16711361	      2.55501297	     -0.12760256	     -0.30550378	      2.55501297	     -0.08876801	     -0.30550378	      2.10412833	     -0.07212352	     -0.25622412	      1.95383345	     -0.04438012	     -0.19463081	      1.80353857	     -0.55478259	     -1.42137037	     13.37432060	      0.00000000	      0.00000000	      7.45453064	     -4.01465528	      8.27592368	    198.07090500	    -47.09533699	    140.78265611	    149.74397815	      1.39494136	     25.76839875	     24.58509262	    157.36264612	    -49.20027082	    122.66605495	    134.09378604	     69.91488774	    -11.82499307	      6.92225058
